HIERARCHY
ROOT root
{
	OFFSET	0	13.1	24.9
	CHANNELS 6  Xposition Yposition Zposition Xrotation Yrotation Zrotation
	JOINT spine_1
	{
		OFFSET	0	9.99999	0
		CHANNELS 3  Xrotation Yrotation Zrotation
		JOINT spine_2
		{
			OFFSET	0	112	-10
			CHANNELS 3  Xrotation Yrotation Zrotation
			JOINT spine_3
			{
				OFFSET	0	206.5	19.3
				CHANNELS 3  Xrotation Yrotation Zrotation
				JOINT spine_4
				{
					OFFSET	0	110.4	14.6
					CHANNELS 3  Xrotation Yrotation Zrotation
					JOINT neck_1
					{
						OFFSET	0	71.8	-50.3
						CHANNELS 3  Xrotation Yrotation Zrotation
						JOINT neck_2
						{
							OFFSET	0	86.2	-25.8
							CHANNELS 3  Xrotation Yrotation Zrotation
							JOINT head_ee
							{
								OFFSET	0	179.8	-8.7
								CHANNELS 3  Xrotation Yrotation Zrotation
								End Site
								{
									OFFSET	1	0	0
								}
							}
						}
					}
					JOINT left_clavicle
					{
						OFFSET	-43.2	22.4	-70.8
						CHANNELS 3  Xrotation Yrotation Zrotation
						JOINT left_shoulder
						{
							OFFSET	-93.9	-5.79999	48.7
							CHANNELS 3  Xrotation Yrotation Zrotation
							JOINT left_elbow
							{
								OFFSET	-291.4	-30.8	15.2
								CHANNELS 3  Xrotation Yrotation Zrotation
								JOINT left_lowarm_twist
								{
									OFFSET	-110.7	-3.89999	13.6
									CHANNELS 3  Xrotation Yrotation Zrotation
									JOINT left_hand
									{
										OFFSET	-110.7	-3.89999	13.6
										CHANNELS 3  Xrotation Yrotation Zrotation
										JOINT left_ee
										{
											OFFSET	-80.8	-5.10001	12.1
											CHANNELS 3  Xrotation Yrotation Zrotation
											End Site
											{
												OFFSET	1	0	0
											}
										}
									}
								}
							}
						}
					}
					JOINT right_clavicle
					{
						OFFSET	43.2	22.4	-70.8
						CHANNELS 3  Xrotation Yrotation Zrotation
						JOINT right_shoulder
						{
							OFFSET	93.9	-5.79999	48.7
							CHANNELS 3  Xrotation Yrotation Zrotation
							JOINT right_elbow
							{
								OFFSET	291.4	-30.8	15.2
								CHANNELS 3  Xrotation Yrotation Zrotation
								JOINT right_lowarm_twist
								{
									OFFSET	110.7	-3.89999	13.6
									CHANNELS 3  Xrotation Yrotation Zrotation
									JOINT right_hand
									{
										OFFSET	110.7	-3.89999	13.6
										CHANNELS 3  Xrotation Yrotation Zrotation
										JOINT right_ee
										{
											OFFSET	80.8	-5.10001	12.1
											CHANNELS 3  Xrotation Yrotation Zrotation
											End Site
											{
												OFFSET	1	0	0
											}
										}
									}
								}
							}
						}
					}
				}
			}
		}
	}
	JOINT left_hip
	{
		OFFSET	-82.8	-127.5	0.300001
		CHANNELS 3  Xrotation Yrotation Zrotation
		JOINT left_knee
		{
			OFFSET	-28.2	-396.7	2.2
			CHANNELS 3  Xrotation Yrotation Zrotation
			JOINT left_ankle
			{
				OFFSET	-11.7	-411.3	35.4
				CHANNELS 3  Xrotation Yrotation Zrotation
				JOINT left_toes
				{
					OFFSET	0	-60	-88.6
					CHANNELS 3  Xrotation Yrotation Zrotation
					JOINT left_foot_ee
					{
						OFFSET	-22.5	-16.5	-42.2
						CHANNELS 3  Xrotation Yrotation Zrotation
						End Site
						{
							OFFSET	1	0	0
						}
					}
				}
			}
		}
	}
	JOINT right_hip
	{
		OFFSET	82.8	-127.5	0.300001
		CHANNELS 3  Xrotation Yrotation Zrotation
		JOINT right_knee
		{
			OFFSET	28.2	-396.7	2.2
			CHANNELS 3  Xrotation Yrotation Zrotation
			JOINT right_ankle
			{
				OFFSET	11.7	-411.3	35.4
				CHANNELS 3  Xrotation Yrotation Zrotation
				JOINT right_toes
				{
					OFFSET	0	-60	-88.6
					CHANNELS 3  Xrotation Yrotation Zrotation
					JOINT right_foot_ee
					{
						OFFSET	22.5	-16.5	-42.2
						CHANNELS 3  Xrotation Yrotation Zrotation
						End Site
						{
							OFFSET	1	0	0
						}
					}
				}
			}
		}
	}
}
MOTION
Frames: 16
Frame Time: 0.02
3569.05 756.804 -1430.49 -5.28789 71.7506 5.3539 2.66662 0.120668 -0.155342 2.66662 0.130308 -0.147348 2.66628 0.152768 -0.12391 2.66628 0.131282 -0.146482 -10.6521 7.92133 -0.660231 -10.7426 15.3892 1.43446 -0.0 0.0 -0.0 3.4812 -4.00966 6.46022 -14.8289 -14.3323 73.3503 0.32743 -9.2133 0.0263827 29.1763 0.0910769 -3.68594 8.3901 -23.8538 49.5781 -0.0 0.0 -0.0 2.8084 14.5583 -4.2285 -24.6247 30.121 -69.4211 1.38459 34.4438 -0.429201 0.999767 -0.0341514 0.123119 -0.764339 -24.6845 -5.44521 0.0 0.0 0.0 -7.6355 12.6795 6.48431 5.76546 -0.279981 -0.839822 -14.7549 24.7226 2.30034 39.874 -0.0 -0.0 -0.0 0.0 -0.0 1.20579 15.3814 -3.97528 -8.85804 -0.262113 -1.33282 13.6151 -4.37367 1.91293 2.16127 -0.0 -0.0 0.0 0.0 0.0 
3567.36 753.526 -1431.09 -6.06415 71.5741 6.08362 2.78673 -0.0195099 -0.127892 2.78674 -0.0113323 -0.128875 2.78676 0.00974676 -0.129004 2.78674 -0.0107494 -0.128925 -11.4952 8.22116 -1.14437 -11.6199 16.3075 1.16914 -0.0 0.0 -0.0 2.66734 -5.01387 4.75634 -14.4588 -17.3464 74.5456 0.35028 -9.84406 0.0301654 27.5295 0.136079 -3.4804 8.67207 -23.6168 52.5409 -0.0 0.0 -0.0 3.77084 14.0507 -6.30896 -26.4334 31.1185 -67.2128 1.28371 32.4514 -0.373592 0.0045844 -0.000161528 0.000563199 -0.993631 -24.8242 -4.20351 0.0 0.0 0.0 -7.68172 12.6577 6.51055 5.77701 -0.280626 -0.841474 -12.6735 22.8362 1.95458 40.1725 -0.0 -0.0 -0.0 0.0 -0.0 1.23786 14.9928 -4.09541 -8.64473 -0.258236 -1.30032 15.0238 -4.65865 2.09838 3.35148 -0.0 -0.0 0.0 0.0 0.0 
3565.31 753.759 -1431.99 -6.20326 72.3763 6.06366 2.72204 -0.0504607 -0.0546325 2.72204 -0.046882 -0.0577327 2.72208 -0.0368113 -0.0646214 2.72208 -0.0465551 -0.0579967 -11.3605 7.41659 -2.29626 -11.4563 15.5307 -0.187615 -0.0 0.0 -0.0 2.87497 -5.27716 5.15302 -15.4375 -18.2138 73.6262 0.429898 -12.0223 0.0452687 27.8446 0.127927 -3.51982 8.89351 -25.0805 53.0414 -0.0 0.0 -0.0 3.72558 14.5089 -6.17495 -29.1017 31.8199 -66.3409 1.44525 35.5981 -0.464015 1.18708 -0.0403105 0.14625 -0.903933 -25.5446 -5.01036 0.0 0.0 0.0 -7.72262 11.7953 6.05964 5.36764 -0.257953 -0.782798 -12.3686 22.6218 1.90517 39.3954 -0.0 -0.0 -0.0 0.0 -0.0 1.29366 16.3538 -4.17547 -8.9456 -0.26367 -1.34616 13.0816 -6.14085 1.8394 0.769591 -0.0 -0.0 0.0 0.0 0.0 
3564.21 756.534 -1433.0 -5.21875 71.6176 5.11875 2.67889 0.132978 -0.0228032 2.67888 0.13416 -0.0142952 2.67885 0.134686 0.00793511 2.67887 0.134249 -0.0134356 -12.4278 7.48799 -2.90949 -12.5543 16.0654 -0.604245 -0.0 0.0 -0.0 3.133 -4.78036 5.70906 -16.0022 -18.5037 72.2081 0.445693 -12.4504 0.0486165 28.5231 0.109636 -3.60456 8.65549 -25.094 50.7358 -0.0 0.0 -0.0 3.80797 13.9733 -6.39389 -29.7425 32.393 -65.9174 1.38147 34.3835 -0.427437 0.864909 -0.0296702 0.106478 -0.735324 -23.7874 -5.24458 0.0 0.0 0.0 -7.70065 11.2923 6.01576 5.62985 -0.272427 -0.820399 -13.4717 23.7497 2.08798 39.9122 -0.0 -0.0 -0.0 0.0 -0.0 1.36619 15.0777 -4.33362 -8.29944 -0.251703 -1.24773 12.6779 -7.04478 1.78484 1.54028 -0.0 -0.0 0.0 0.0 0.0 
3560.92 759.293 -1437.12 -5.68409 70.8804 5.39404 2.77125 0.259582 0.0164379 2.77121 0.25801 0.0329226 2.77137 0.249219 0.0744515 2.77146 0.257849 0.0341574 -13.1795 7.20922 -3.3152 -13.3152 15.7843 -0.969384 -0.0 0.0 -0.0 3.19252 -4.42861 5.85383 -16.7451 -19.0566 71.599 0.494991 -13.7775 0.0598023 28.7686 0.10277 -3.63517 8.61962 -25.3987 50.0652 -0.0 0.0 -0.0 3.9455 13.8391 -6.69572 -30.6326 32.9032 -65.6983 1.42054 35.1318 -0.449712 1.08262 -0.036885 0.133348 -0.635525 -23.1865 -5.57485 0.0 0.0 0.0 -7.71477 10.6428 5.85334 5.6034 -0.270959 -0.816609 -14.932 24.1914 2.32222 39.7951 -0.0 -0.0 -0.0 0.0 -0.0 1.27697 15.0003 -4.44174 -7.82682 -0.242247 -1.17582 12.0048 -7.73528 1.69421 1.0016 -0.0 -0.0 0.0 0.0 0.0 
3560.7 757.208 -1439.08 -5.55562 68.7195 5.40335 2.76833 0.498746 -0.013493 2.76819 0.498593 0.0182716 2.76839 0.488977 0.0991532 2.76872 0.498499 0.0206821 -13.3619 6.96003 -2.83105 -13.4946 15.0076 -0.560496 -0.0 0.0 -0.0 3.07484 -2.74522 5.73926 -17.0442 -19.3902 70.5457 0.580651 -16.0474 0.0818507 29.0018 0.0961273 -3.66422 8.67243 -25.4511 50.4999 -0.0 0.0 -0.0 4.73292 15.711 -8.21997 -32.4705 33.0262 -64.8405 1.39898 34.7205 -0.437367 1.25738 -0.0426027 0.154937 -0.535554 -22.7336 -5.97202 0.0 0.0 0.0 -7.66062 10.0791 5.70865 4.97574 -0.236643 -0.726477 -14.6239 24.5708 2.27794 40.1537 -0.0 -0.0 -0.0 0.0 -0.0 1.31003 17.6139 -4.5909 -7.42686 -0.233782 -1.11503 12.22 -6.03404 1.72396 0.867819 -0.0 -0.0 0.0 0.0 0.0 
3557.88 756.321 -1441.64 -5.35218 70.1026 4.86838 2.76388 0.281067 0.061452 2.76384 0.276587 0.0792126 2.76424 0.260004 0.123179 2.76432 0.276194 0.0805696 -13.6698 7.22715 -2.75087 -13.8226 15.4643 -0.356614 -0.0 0.0 -0.0 2.83789 -3.8319 5.18962 -17.9485 -21.2785 70.5858 0.676753 -18.5335 0.11042 28.8962 0.0991508 -3.65106 8.48577 -25.5083 48.7185 -0.0 0.0 -0.0 4.40355 15.8311 -7.50735 -32.0733 32.3033 -65.5206 1.4286 35.2844 -0.454357 2.51385 -0.0817646 0.310646 -0.300057 -21.3474 -6.80403 0.0 0.0 0.0 -7.56357 9.58143 6.15125 4.75548 -0.224835 -0.694761 -12.1152 24.609 1.88294 39.9978 -0.0 -0.0 -0.0 0.0 -0.0 0.77131 16.9714 -4.39782 -7.8585 -0.242899 -1.18064 10.6325 -7.71873 1.50798 3.25125 -0.0 -0.0 0.0 0.0 0.0 
3554.19 754.432 -1441.22 -6.84533 69.5946 6.44209 3.02204 0.36377 -0.0908564 3.02197 0.368814 -0.0675244 3.02155 0.374853 -0.00826978 3.02174 0.368843 -0.0673679 -13.6766 7.70135 -1.37275 -13.8474 15.5218 1.10629 -0.0 0.0 -0.0 3.0898 -2.81885 5.76366 -17.2676 -21.4877 70.3537 0.64382 -17.6891 0.100182 29.0787 0.0939088 -3.6738 8.37156 -25.7903 47.3997 -0.0 0.0 -0.0 4.45506 16.983 -7.52228 -34.1214 34.1391 -64.5857 1.4356 35.4167 -0.458412 3.5204 -0.110665 0.435969 -0.184943 -21.6702 -7.60835 0.0 0.0 0.0 -7.43347 9.25753 6.05205 4.85414 -0.230109 -0.708973 -12.706 23.7614 1.9679 40.1593 -0.0 -0.0 -0.0 0.0 -0.0 0.863128 16.8782 -4.19065 -7.22444 -0.229336 -1.08429 11.5265 -6.22281 1.63016 2.34772 -0.0 -0.0 0.0 0.0 0.0 
3550.47 755.797 -1445.39 -6.06429 67.9457 5.37085 3.04775 0.614048 0.0337868 3.04754 0.610653 0.0727932 3.04839 0.591503 0.168289 3.04887 0.610658 0.0727567 -13.6967 8.05676 -2.16014 -13.8886 16.6822 0.477201 -0.0 0.0 -0.0 3.02442 -1.4685 5.72914 -17.9039 -20.4387 69.4316 0.686824 -18.79 0.113643 29.9932 0.0665642 -3.78741 8.1007 -26.0048 44.8324 -0.0 0.0 -0.0 4.63882 16.7947 -7.93146 -33.9941 33.7142 -65.1317 1.41312 34.9907 -0.44545 2.7784 -0.0895738 0.343536 -0.51501 -22.8191 -6.12545 0.0 0.0 0.0 -7.08216 9.06463 5.7472 4.70933 -0.222376 -0.68811 -15.0017 25.3211 2.34645 40.243 -0.0 -0.0 -0.0 0.0 -0.0 0.468227 14.0057 -4.21248 -5.93194 -0.198387 -0.888357 11.789 -5.80235 1.66605 3.72274 -0.0 -0.0 0.0 0.0 0.0 
3546.73 756.15 -1448.31 -5.20933 66.7986 4.50027 3.0811 0.587878 0.0104716 3.0809 0.58602 0.0478598 3.08146 0.571195 0.139451 3.08192 0.58605 0.0474883 -14.062 8.05363 -1.44171 -14.2615 16.2422 1.21173 -0.0 0.0 -0.0 2.98134 -0.395985 5.71868 -18.1759 -21.2186 69.0169 0.707564 -19.3159 0.120413 29.2041 0.0902663 -3.6894 8.11699 -25.5455 45.4209 -0.0 0.0 -0.0 4.98868 18.1152 -8.57339 -34.4925 33.9151 -65.372 1.31087 32.9968 -0.388272 3.46333 -0.109086 0.42885 -0.372834 -21.6803 -6.50559 0.0 0.0 0.0 -7.42459 8.82672 6.15008 4.87063 -0.230993 -0.711348 -15.0951 23.8238 2.34378 40.2727 -0.0 -0.0 -0.0 0.0 -0.0 0.40136 16.6752 -4.32239 -6.59841 -0.214898 -0.989302 10.9101 -5.67059 1.54692 3.26395 -0.0 -0.0 0.0 0.0 0.0 
3546.22 750.742 -1449.63 -5.28229 66.5375 4.61403 3.14482 0.3472 -0.00284375 3.14476 0.346677 0.0192555 3.1449 0.339413 0.0731777 3.14506 0.34671 0.0186548 -14.3837 8.37837 -2.07158 -14.6155 17.246 0.774214 -0.0 0.0 -0.0 2.87792 0.272704 5.56449 -18.6162 -21.3293 68.4888 0.724378 -19.7398 0.126034 28.3135 0.115392 -3.57841 8.1022 -25.0311 45.7959 -0.0 0.0 -0.0 5.21852 19.815 -8.92474 -34.2028 33.6736 -65.2456 1.34207 33.6152 -0.405408 4.44632 -0.135302 0.55168 -0.230657 -22.1 -7.50434 0.0 0.0 0.0 -7.37934 8.61907 5.97141 5.69699 -0.276161 -0.830017 -13.4752 25.139 2.10284 40.2297 -0.0 -0.0 -0.0 0.0 -0.0 -0.051463 16.4088 -4.10709 -6.12136 -0.203199 -0.917028 14.4485 -4.79345 2.02252 4.76448 -0.0 -0.0 0.0 0.0 0.0 
3543.68 749.767 -1450.35 -4.22237 65.9635 3.45813 3.02383 0.302325 -0.00396058 3.02378 0.301964 0.0152853 3.02388 0.295736 0.062896 3.024 0.301958 0.0154002 -15.1243 9.42345 -1.9086 -15.4502 19.1511 1.41677 -0.0 0.0 -0.0 2.54077 1.14345 4.97969 -18.8953 -22.1434 68.4309 0.80678 -21.7843 0.155249 28.3187 0.115251 -3.57906 8.17351 -25.0597 46.3914 -0.0 0.0 -0.0 5.2158 21.7389 -8.74705 -33.1865 32.7923 -65.9268 1.36184 34.0024 -0.416404 5.25375 -0.155256 0.652891 -0.180575 -22.6393 -8.00399 0.0 0.0 0.0 -7.28255 8.48592 6.69077 5.18407 -0.247923 -0.756434 -12.608 25.5395 1.96991 40.1988 -0.0 -0.0 -0.0 0.0 -0.0 -0.780034 16.0697 -4.04883 -6.49743 -0.212472 -0.973996 16.1749 -6.76195 2.24589 4.98183 -0.0 -0.0 0.0 0.0 0.0 
3544.73 746.624 -1454.3 -4.56954 66.8651 3.53181 2.91965 0.00477496 0.0304422 2.91965 0.00282817 0.0306843 2.91965 -0.00212105 0.0307413 2.91965 0.00276058 0.0306905 -15.1543 11.6042 -0.975116 -15.639 22.774 3.09504 -0.0 0.0 -0.0 2.1397 1.52089 4.24471 -18.8134 -22.9127 67.864 0.888501 -23.7558 0.186882 29.3609 0.0856649 -3.7089 8.00251 -25.7648 44.231 -0.0 0.0 -0.0 5.4886 22.9315 -9.22858 -32.5805 29.7851 -66.8123 1.35868 33.9408 -0.41464 6.0706 -0.173989 0.755555 -0.175968 -22.1478 -7.84383 0.0 0.0 0.0 -7.07792 8.43806 6.73518 5.35215 -0.257104 -0.780574 -9.0167 29.2977 1.43438 40.2171 -0.0 -0.0 -0.0 0.0 -0.0 -0.590664 15.7423 -3.89761 -5.80326 -0.195064 -0.868889 16.4945 -4.68401 2.28964 5.96174 -0.0 -0.0 0.0 0.0 0.0 
3543.27 743.656 -1457.36 -4.15568 67.0199 3.51695 2.71861 0.121644 0.00793553 2.7186 0.120892 0.01566 2.71864 0.116703 0.0352231 2.71866 0.120801 0.01635 -13.9137 11.9589 -2.86007 -14.3722 24.5462 1.17428 -0.0 0.0 -0.0 2.03054 1.99864 4.0762 -18.3388 -23.142 67.5789 0.937473 -24.9096 0.207062 27.1977 0.14443 -3.43884 7.66872 -25.3464 41.8358 -0.0 0.0 -0.0 5.63957 25.4444 -9.31173 -33.1976 29.4937 -67.3019 1.38956 34.5397 -0.432018 6.38308 -0.180768 0.794896 -0.371014 -24.4356 -7.5893 0.0 0.0 0.0 -6.86578 8.84193 6.47908 5.44324 -0.262109 -0.793646 -7.55539 30.1095 1.20604 40.3185 -0.0 -0.0 -0.0 0.0 -0.0 -0.73384 19.9226 -3.98949 -6.34359 -0.208724 -0.950684 18.0812 -5.04069 2.49198 6.26375 -0.0 -0.0 0.0 0.0 0.0 
3539.3 740.678 -1460.34 -3.94627 66.1922 3.5404 2.93281 0.287228 -0.0290302 2.93276 0.288493 -0.0106941 2.93272 0.286492 0.0355678 2.93283 0.288513 -0.010125 -15.3795 12.6651 -2.88437 -16.021 25.92 1.76891 -0.0 0.0 -0.0 1.82829 2.6854 3.75178 -18.7529 -23.953 67.647 0.926245 -24.6469 0.202356 25.7389 0.178282 -3.25557 7.44891 -25.1486 40.2199 -0.0 0.0 -0.0 6.37776 26.6775 -10.7956 -33.5718 28.2667 -67.9272 1.35592 33.8867 -0.413098 7.11637 -0.195831 0.887355 -0.428328 -25.3955 -7.63306 0.0 0.0 0.0 -6.82123 8.40899 6.07127 3.59386 -0.164591 -0.526774 -4.8523 29.8745 0.770041 40.4085 -0.0 -0.0 -0.0 0.0 -0.0 -0.666678 18.8822 -4.01144 -6.44468 -0.211194 -0.966001 20.6641 -6.78654 2.81272 7.91329 -0.0 -0.0 0.0 0.0 0.0 
3533.29 741.794 -1465.27 -3.5312 63.1339 2.83929 2.9777 0.603225 -0.139328 2.9775 0.610869 -0.100659 2.97648 0.619102 -0.00216756 2.977 0.61099 -0.0999197 -15.717 12.5711 0.37194 -16.2933 23.8678 4.84241 -0.0 0.0 -0.0 1.19707 5.38299 2.82306 -18.8919 -22.6418 67.6898 0.96892 -25.6394 0.220488 24.6076 0.201314 -3.1129 6.90411 -25.2562 35.8469 -0.0 0.0 -0.0 7.0374 27.9593 -12.1009 -32.0658 26.3616 -67.7511 1.23705 31.4986 -0.34888 7.50175 -0.203273 0.936021 -0.920543 -29.0512 -6.35911 0.0 0.0 0.0 -2.41179 9.82126 4.72567 -7.74686 0.240589 1.16367 6.70916 27.9507 -1.0249 40.1672 -0.0 -0.0 -0.0 0.0 -0.0 -1.13479 20.4207 -3.78664 -5.3188 -0.182161 -0.795662 18.4842 -2.44269 2.55001 5.57087 -0.0 -0.0 0.0 0.0 0.0 
